<?xml version="1.0" encoding="iso-8859-1"?>
<!-- Generator: Adobe Illustrator 19.0.0, SVG Export Plug-In . SVG Version: 6.00 Build 0)  -->
<svg version="1.1" id="Layer_1" xmlns="http://www.w3.org/2000/svg" xmlns:xlink="http://www.w3.org/1999/xlink" x="0px" y="0px"
	 viewBox="0 0 512 512" style="enable-background:new 0 0 512 512;" xml:space="preserve">
<path style="fill:#FF6B6B;" d="M42.667,59.733h426.667c18.85,0,34.133,15.283,34.133,34.133v324.267
	c0,18.85-15.283,34.133-34.133,34.133H42.667c-18.85,0-34.133-15.283-34.133-34.133V93.867
	C8.533,75.017,23.817,59.733,42.667,59.733z"/>
<path style="fill:#FF6B6B;" d="M42.667,59.733H435.2c18.85,0,34.133,15.283,34.133,34.133v324.267
	c0,18.85-15.283,34.133-34.133,34.133H42.667c-18.85,0-34.133-15.283-34.133-34.133V93.867
	C8.533,75.017,23.817,59.733,42.667,59.733z"/>
<path d="M469.333,460.8H42.667C19.14,460.8,0,441.66,0,418.133V93.867C0,70.34,19.14,51.2,42.667,51.2h426.667
	C492.86,51.2,512,70.34,512,93.867v324.267C512,441.66,492.86,460.8,469.333,460.8z M42.667,68.267c-14.114,0-25.6,11.486-25.6,25.6
	v324.267c0,14.114,11.486,25.6,25.6,25.6h426.667c14.114,0,25.6-11.486,25.6-25.6V93.867c0-14.114-11.486-25.6-25.6-25.6H42.667z"/>
<path style="fill:#37474F;" d="M460.8,119.467v204.8c-0.87,10.163-9.728,17.758-19.908,17.067h-2.586
	c-5.111-5.316-11.281-9.506-18.116-12.288c0.521-1.536,0.785-3.157,0.794-4.779v-204.8c-0.87-10.163-9.728-17.758-19.908-17.067
	H440.9C451.072,101.709,459.93,109.303,460.8,119.467z"/>
<path style="fill:#607D8B;" d="M426.667,119.467v204.8c-0.009,1.613-0.239,3.226-0.683,4.779
	c-6.426-3.157-13.491-4.796-20.651-4.779c-5.845-0.026-11.639,1.075-17.067,3.243c-7.458,2.876-14.046,7.637-19.115,13.824H142.848
	c-8.892-10.829-22.17-17.092-36.181-17.067c-5.845-0.026-11.639,1.075-17.067,3.243c-7.458,2.876-14.046,7.637-19.115,13.824h-2.219
	c-7.569-0.051-14.217-5.035-16.384-12.288c-0.444-1.553-0.674-3.166-0.683-4.779v-204.8c0.026-9.412,7.654-17.041,17.067-17.067
	H409.6C419.012,102.426,426.641,110.054,426.667,119.467z"/>
<path d="M443.759,349.867h-6.263l-2.56-3.106c-13.457-16.333-37.675-18.662-53.99-5.205c-1.877,1.553-3.635,3.311-5.214,5.222
	l-2.569,3.089H138.829l-2.56-3.106c-13.449-16.324-37.683-18.662-53.99-5.205c-1.894,1.57-3.652,3.328-5.214,5.214l-2.56,3.098
	h-6.238c-14.08-0.034-25.557-11.511-25.6-25.574V119.467c0.043-14.08,11.52-25.557,25.574-25.6h375.492
	c14.089,0.043,25.566,11.52,25.6,25.583v204.817C469.299,338.355,457.822,349.833,443.759,349.867z M146.671,332.8h218.658
	c1.51-1.579,3.089-3.046,4.762-4.42c22.46-18.517,55.262-16.333,75.127,4.284c3.985-0.717,7.04-4.224,7.049-8.422V119.484
	c-0.009-4.702-3.849-8.542-8.559-8.55H68.267c-4.676,0.009-8.525,3.857-8.533,8.559v204.774c0.009,4.173,3.063,7.671,7.057,8.397
	c1.459-1.519,3.012-2.944,4.625-4.284C93.926,309.828,126.831,312.064,146.671,332.8z"/>
<g>
	<path style="fill:#424242;" d="M153.6,371.2c0.017,25.907-20.975,46.916-46.882,46.933c-0.017,0-0.034,0-0.051,0
		c-4.326,0.017-8.644-0.589-12.8-1.792c-24.934-7.074-39.407-33.024-32.333-57.95c4.446-15.659,16.683-27.887,32.333-32.333
		c4.156-1.212,8.474-1.809,12.8-1.792C132.574,324.292,153.574,345.293,153.6,371.2z"/>
	<path style="fill:#424242;" d="M452.267,371.2c0.017,25.907-20.975,46.916-46.882,46.933c-0.017,0-0.034,0-0.051,0
		c-4.326,0.017-8.644-0.589-12.8-1.792c-24.934-7.074-39.407-33.024-32.333-57.95c4.446-15.65,16.674-27.887,32.333-32.333
		c4.156-1.212,8.474-1.809,12.8-1.792C431.241,324.292,452.241,345.293,452.267,371.2z"/>
</g>
<g>
	<path style="fill:#9E9E9E;" d="M128,371.2c0.017,20.992-13.926,39.441-34.133,45.141c-24.934-7.074-39.407-33.024-32.333-57.95
		c4.446-15.659,16.683-27.887,32.333-32.333C114.048,331.793,127.983,350.217,128,371.2z"/>
	<path style="fill:#9E9E9E;" d="M426.667,371.2c0.017,20.992-13.926,39.441-34.133,45.141c-24.934-7.074-39.407-33.024-32.333-57.95
		c4.446-15.65,16.674-27.887,32.333-32.333C412.715,331.793,426.65,350.217,426.667,371.2z"/>
</g>
<path d="M106.624,426.752c-14.805,0-28.732-5.76-39.211-16.213c-10.496-10.479-16.282-24.414-16.29-39.245
	c-0.009-14.831,5.743-28.766,16.222-39.27c10.479-10.487,24.405-16.273,39.236-16.29c0.017,0,0.043,0,0.068,0
	c16.606,0,32.196,7.347,42.786,20.164c8.183,9.899,12.698,22.434,12.698,35.294l0,0c0.009,14.822-5.743,28.766-16.222,39.27
	c-10.479,10.487-24.405,16.273-39.236,16.29C106.658,426.752,106.641,426.752,106.624,426.752z M106.641,332.8
	c-0.017,0-0.034,0-0.051,0c-10.274,0.009-19.917,4.019-27.179,11.281c-7.262,7.262-11.238,16.922-11.23,27.196
	c0.009,10.274,4.019,19.925,11.281,27.179c7.253,7.245,16.896,11.23,27.153,11.23c9.899-0.128,19.951-4.002,27.213-11.281
	c7.253-7.27,11.238-16.922,11.23-27.196V371.2c0-8.9-3.123-17.579-8.789-24.422C128.93,337.894,118.135,332.8,106.641,332.8z"/>
<path d="M405.282,426.752c-14.797,0-28.723-5.76-39.211-16.213c-10.487-10.479-16.273-24.405-16.29-39.245
	c-0.017-14.822,5.751-28.766,16.213-39.27c10.479-10.487,24.414-16.273,39.245-16.29c0.026,0,0.043,0,0.068,0
	c16.606,0,32.196,7.347,42.795,20.164c8.184,9.907,12.698,22.443,12.698,35.294l0,0c0.017,14.822-5.751,28.766-16.222,39.27
	c-10.479,10.487-24.405,16.273-39.236,16.29C405.325,426.752,405.308,426.752,405.282,426.752z M405.308,332.8
	c-0.017,0-0.034,0-0.051,0c-10.274,0.009-19.925,4.019-27.179,11.281c-7.262,7.27-11.238,16.922-11.23,27.196
	c0.009,10.274,4.019,19.925,11.281,27.179c7.262,7.245,16.896,11.23,27.153,11.23c0.017,0,0.026,0,0.043,0
	c10.266-0.009,19.917-4.019,27.179-11.281c7.253-7.27,11.238-16.922,11.23-27.196V371.2c0-8.892-3.123-17.57-8.789-24.431
	C427.605,337.894,416.811,332.8,405.308,332.8z"/>
<path d="M102.4,145.067H85.333c-4.71,0-8.533-3.823-8.533-8.533S80.623,128,85.333,128H102.4c4.71,0,8.533,3.823,8.533,8.533
	S107.11,145.067,102.4,145.067z"/>
<path d="M204.8,145.067h-68.267c-4.71,0-8.533-3.823-8.533-8.533s3.823-8.533,8.533-8.533H204.8c4.71,0,8.533,3.823,8.533,8.533
	S209.51,145.067,204.8,145.067z"/>
<path d="M255.991,315.725c-3.046,0-6.101-1.067-8.55-3.234c-0.205-0.179-0.768-0.734-0.947-0.93l-69.282-77.858
	c-0.384-0.435-0.725-0.905-1.024-1.417l-1.271-2.21c-0.179-0.307-0.333-0.623-0.469-0.947c-5.009-11.913-5.009-25.591,0-37.504
	c4.881-11.767,14.08-20.975,25.899-25.865c11.819-4.898,24.832-4.89,36.642,0.009c5.897,2.441,11.179,5.99,15.684,10.53
	c1.169,1.263,2.278,2.56,3.319,3.883c0.998-1.263,2.039-2.492,3.149-3.686c9.276-9.293,21.316-14.285,34.142-14.293
	c0.009,0,0.017,0,0.017,0c12.817,0,24.858,4.983,33.929,14.046c4.429,4.429,7.902,9.6,10.325,15.386
	c2.526,5.931,3.797,12.254,3.78,18.748c0.017,6.494-1.254,12.809-3.797,18.782c-0.137,0.316-0.282,0.631-0.461,0.93l-1.271,2.21
	c-0.29,0.503-0.632,0.973-1.015,1.408l-69.146,77.705C263.1,314.266,259.55,315.725,255.991,315.725z M190.549,223.019L256,296.568
	l66.022-74.53c1.51-3.703,2.27-7.612,2.253-11.631c0-0.017,0-0.034,0-0.051c0.017-4.181-0.811-8.243-2.432-12.083
	c-1.587-3.763-3.814-7.1-6.673-9.95c-12.066-12.049-31.684-12.049-43.733,0.017c-3.055,3.311-5.683,7.356-7.569,11.81
	c-1.34,3.157-4.437,5.205-7.859,5.205l0,0c-3.422,0-6.519-2.048-7.851-5.205c-1.877-4.446-4.497-8.491-7.791-12.023
	c-2.705-2.731-6.101-5.009-9.899-6.579c-7.603-3.149-15.974-3.157-23.578,0c-7.603,3.149-13.525,9.071-16.674,16.666
	c-3.2,7.603-3.26,16.247-0.205,23.851L190.549,223.019z"/>
<path d="M102.4,358.4c-2.219,0-4.437-0.939-6.059-2.475c-1.536-1.621-2.475-3.84-2.475-6.059c0-2.219,0.939-4.446,2.475-6.059
	c3.157-3.157,8.96-3.157,12.117,0c1.536,1.613,2.475,3.84,2.475,6.059c0,2.219-0.939,4.437-2.475,6.059
	C106.837,357.461,104.704,358.4,102.4,358.4z"/>
<path d="M409.6,401.067c-2.219,0-4.446-0.939-6.059-2.475c-1.545-1.621-2.475-3.755-2.475-6.059c0-2.219,0.93-4.446,2.475-6.059
	c3.157-3.157,8.96-3.157,12.117,0c1.536,1.613,2.475,3.84,2.475,6.059s-0.939,4.437-2.475,6.059
	C414.037,400.128,411.819,401.067,409.6,401.067z"/>
<path d="M307.2,384H204.8c-4.71,0-8.533-3.814-8.533-8.533c0-4.719,3.823-8.533,8.533-8.533h102.4c4.719,0,8.533,3.814,8.533,8.533
	C315.733,380.186,311.919,384,307.2,384z"/>
<path d="M307.2,418.133H204.8c-4.71,0-8.533-3.814-8.533-8.533c0-4.719,3.823-8.533,8.533-8.533h102.4
	c4.719,0,8.533,3.814,8.533,8.533C315.733,414.319,311.919,418.133,307.2,418.133z"/>
<g>
</g>
<g>
</g>
<g>
</g>
<g>
</g>
<g>
</g>
<g>
</g>
<g>
</g>
<g>
</g>
<g>
</g>
<g>
</g>
<g>
</g>
<g>
</g>
<g>
</g>
<g>
</g>
<g>
</g>
</svg>
